<svg width="30" height="34" viewBox="0 0 30 34" fill="none" xmlns="http://www.w3.org/2000/svg">
<g filter="url(#filter0_d_1996_3726)">
<path d="M20.0977 8.40039V12.0004" stroke="#737373" stroke-linecap="round" stroke-linejoin="round"/>
<path d="M20.0977 8.40039V12.0004" stroke="#737373" stroke-linecap="round" stroke-linejoin="round"/>
<path d="M15.2988 8.40039V12.0004" stroke="#737373" stroke-linecap="round" stroke-linejoin="round"/>
<path d="M24.5476 15.9522L20.4508 20.049C20.2252 20.2746 19.9204 20.4006 19.6024 20.4006H15.2992L10.4992 25.2006V20.4006H6.89922C6.23682 20.4006 5.69922 19.863 5.69922 19.2006V8.89739C5.69922 8.57939 5.82522 8.27339 6.05082 8.04899L10.1476 3.95219C10.3732 3.72659 10.678 3.60059 10.996 3.60059H23.6992C24.3616 3.60059 24.8992 4.13819 24.8992 4.80059V15.1038C24.8992 15.4218 24.7732 15.7266 24.5476 15.9522V15.9522Z" stroke="#737373" stroke-linecap="round" stroke-linejoin="round"/>
</g>
<defs>
<filter id="filter0_d_1996_3726" x="-3.10156" y="0" width="36.8008" height="36.7998" filterUnits="userSpaceOnUse" color-interpolation-filters="sRGB">
<feFlood flood-opacity="0" result="BackgroundImageFix"/>
<feColorMatrix in="SourceAlpha" type="matrix" values="0 0 0 0 0 0 0 0 0 0 0 0 0 0 0 0 0 0 127 0" result="hardAlpha"/>
<feOffset dy="4"/>
<feGaussianBlur stdDeviation="2"/>
<feComposite in2="hardAlpha" operator="out"/>
<feColorMatrix type="matrix" values="0 0 0 0 0 0 0 0 0 0 0 0 0 0 0 0 0 0 0.25 0"/>
<feBlend mode="normal" in2="BackgroundImageFix" result="effect1_dropShadow_1996_3726"/>
<feBlend mode="normal" in="SourceGraphic" in2="effect1_dropShadow_1996_3726" result="shape"/>
</filter>
</defs>
</svg>
