<svg width="27" height="27" viewBox="0 0 27 27" fill="none" xmlns="http://www.w3.org/2000/svg">
<g clip-path="url(#clip0_4424_5480)">
<path d="M8.3252 15.975L6.6377 7.875H20.8127C21.6002 7.875 22.0502 8.55 21.9377 9.225L20.3627 16.0875C20.1377 16.9875 19.3502 17.6625 18.4502 17.775H10.8002C9.5627 17.8875 8.5502 17.1 8.3252 15.975Z" stroke="#020202" stroke-linecap="round" stroke-linejoin="round"/>
<path d="M6.6375 7.875L5.85 4.5H3.9375" stroke="#020202" stroke-linecap="round" stroke-linejoin="round"/>
<path d="M19.2371 20.5874C19.0121 20.5874 18.7871 20.8124 18.7871 21.0374C18.7871 21.2624 19.0121 21.4874 19.2371 21.4874C19.4621 21.4874 19.6871 21.2624 19.6871 21.0374C19.6871 20.6999 19.4621 20.5874 19.2371 20.5874Z" stroke="#020202" stroke-linecap="round" stroke-linejoin="round"/>
<path d="M9.78789 20.5874C9.56289 20.5874 9.33789 20.8124 9.33789 21.0374C9.33789 21.2624 9.56289 21.4874 9.78789 21.4874C10.0129 21.4874 10.2379 21.2624 10.2379 21.0374C10.2379 20.6999 10.0129 20.5874 9.78789 20.5874Z" stroke="#020202" stroke-linecap="round" stroke-linejoin="round"/>
</g>
<defs>
<clipPath id="clip0_4424_5480">
<rect width="27" height="27" fill="white"/>
</clipPath>
</defs>
</svg>
