<svg width="25" height="10" viewBox="0 0 25 10" fill="none" xmlns="http://www.w3.org/2000/svg">
<path d="M3.60938 9.11719C2.93359 9.11719 2.34375 8.99219 1.83984 8.74219C1.33594 8.49219 0.945312 8.13477 0.667969 7.66992C0.390625 7.20508 0.251953 6.64844 0.251953 6V0.744141H1.37109V5.90625C1.37109 6.66016 1.5625 7.23242 1.94531 7.62305C2.32812 8.01367 2.88086 8.20898 3.60352 8.20898C4.3457 8.20898 4.92188 8.00781 5.33203 7.60547C5.74609 7.19922 5.95312 6.60742 5.95312 5.83008V0.744141H7.06641V5.89453C7.06641 6.5625 6.92383 7.13672 6.63867 7.61719C6.35742 8.09766 5.95703 8.46875 5.4375 8.73047C4.92188 8.98828 4.3125 9.11719 3.60938 9.11719ZM15.4512 6.7207C15.4512 7.48242 15.1523 8.07227 14.5547 8.49023C13.9609 8.9082 13.123 9.11719 12.041 9.11719C10.0293 9.11719 8.86328 8.41797 8.54297 7.01953L9.62695 6.80273C9.75195 7.29883 10.0176 7.66406 10.4238 7.89844C10.8301 8.12891 11.3828 8.24414 12.082 8.24414C12.8047 8.24414 13.3613 8.12109 13.752 7.875C14.1465 7.625 14.3438 7.25977 14.3438 6.7793C14.3438 6.50977 14.2812 6.29102 14.1562 6.12305C14.0352 5.95508 13.8633 5.81641 13.6406 5.70703C13.418 5.59766 13.1523 5.50586 12.8438 5.43164C12.5352 5.35742 12.1934 5.27734 11.8184 5.19141C11.3848 5.09375 11.0215 4.99805 10.7285 4.9043C10.4395 4.81055 10.2012 4.71289 10.0137 4.61133C9.82617 4.50586 9.66602 4.39453 9.5332 4.27734C9.33789 4.09766 9.1875 3.88867 9.08203 3.65039C8.98047 3.41211 8.92969 3.13867 8.92969 2.83008C8.92969 2.12305 9.19922 1.57812 9.73828 1.19531C10.2812 0.8125 11.0566 0.621094 12.0645 0.621094C13.002 0.621094 13.7188 0.765625 14.2148 1.05469C14.7109 1.33984 15.0586 1.82812 15.2578 2.51953L14.1562 2.71289C14.0352 2.27539 13.8047 1.95898 13.4648 1.76367C13.125 1.56445 12.6543 1.46484 12.0527 1.46484C11.3926 1.46484 10.8887 1.57422 10.541 1.79297C10.1934 2.01172 10.0195 2.33789 10.0195 2.77148C10.0195 3.02539 10.0859 3.23633 10.2188 3.4043C10.3555 3.56836 10.5508 3.70703 10.8047 3.82031C11.043 3.93359 11.5488 4.07617 12.3223 4.24805C12.6387 4.32227 12.9512 4.40039 13.2598 4.48242C13.5684 4.56055 13.8594 4.66016 14.1328 4.78125C14.293 4.84766 14.4453 4.92969 14.5898 5.02734C14.7383 5.12109 14.8672 5.23047 14.9766 5.35547C15.125 5.51953 15.2402 5.71289 15.3223 5.93555C15.4082 6.1582 15.4512 6.41992 15.4512 6.7207ZM24.0938 4.78711C24.0938 5.6582 23.9238 6.4082 23.584 7.03711C23.248 7.66602 22.7773 8.15039 22.1719 8.49023C21.5703 8.83008 20.8711 9 20.0742 9H16.9863V0.744141H19.7168C21.1152 0.744141 22.1934 1.0957 22.9512 1.79883C23.7129 2.49805 24.0938 3.49414 24.0938 4.78711ZM22.9688 4.78711C22.9688 3.76367 22.6875 2.98437 22.125 2.44922C21.5664 1.91016 20.7559 1.64062 19.6934 1.64062H18.1055V8.10352H19.9453C20.5586 8.10352 21.0898 7.96875 21.5391 7.69922C21.9922 7.42969 22.3438 7.04688 22.5938 6.55078C22.8438 6.05469 22.9688 5.4668 22.9688 4.78711Z" fill="black"/>
</svg>
